<?xml version="1.0" encoding="UTF-8"?>
<svg width="752pt" height="752pt" version="1.1" viewBox="0 0 752 752" xmlns="http://www.w3.org/2000/svg">
 <path d="m438.04 377.89c0 2.8398-0.94531 5.6836-3.3164 8.5234-17.996 17.996-36.465 36.465-54.461 54.461-10.891 10.891-27.469-5.6836-16.574-16.574 11.84-11.84 23.207-23.207 35.047-35.047h-195.12c-2.8398 0-5.6836-0.94531-7.1055-2.3672-2.8398-1.8945-4.7344-5.2109-4.2617-9.4727 1.4219-64.879 34.098-125.02 90.453-158.65 102.3-61.562 240.11-5.207 271.36 110.35 31.258 116.97-59.195 230.16-178.07 232.53-15.156 0.47266-15.156-23.207 0-23.68 65.355-1.4219 125.02-39.781 149.18-100.87 23.68-59.199 8.9961-128.34-35.52-173.33-44.988-44.988-114.13-59.199-173.33-35.52-57.305 22.73-95.191 77.195-100.4 137.34h181.38c-11.84-11.84-23.207-23.207-35.047-35.047-10.891-10.891 6.1562-27.469 16.574-16.574l55.883 55.883c2.3711 2.3672 3.3164 5.2109 3.3164 8.0508z"/>
</svg>
